<svg xmlns="http://www.w3.org/2000/svg" viewBox="0 0 512 512">
  <defs>
    <linearGradient id="grad1" x1="0%" y1="0%" x2="100%" y2="100%">
      <stop offset="0%" style="stop-color:#2563eb;stop-opacity:1" />
      <stop offset="100%" style="stop-color:#4f46e5;stop-opacity:1" />
    </linearGradient>
    <filter id="shadow">
      <feDropShadow dx="0" dy="4" stdDeviation="8" flood-color="#000" flood-opacity="0.25"/>
    </filter>
  </defs>
  
  <rect width="512" height="512" rx="100" fill="url(#grad1)" />
  
  <g filter="url(#shadow)" transform="translate(106, 106) scale(0.6)">
    <!-- Shield -->
    <path d="M256 0C114.6 0 0 114.6 0 256s114.6 256 256 256 256-114.6 256-256S397.4 0 256 0z" fill="white" opacity="0.1"/>
    <path d="M256 48c-68.4 0-128.8 30.6-169.8 79.2l339.6 0C384.8 78.6 324.4 48 256 48z" fill="white" opacity="0.2"/>
    <path d="M256 512c141.4 0 256-114.6 256-256S397.4 0 256 0 0 114.6 0 256s114.6 256 256 256z M256 64c106 0 192 86 192 192s-86 192-192 192S64 362 64 256 150 64 256 64z" fill="white"/>
    
    <!-- Checkmark -->
    <path d="M365.3 162.6c6.2-6.2 16.4-6.2 22.6 0 6.2 6.2 6.2 16.4 0 22.6l-160 160c-6.2 6.2-16.4 6.2-22.6 0l-80-80c-6.2-6.2-6.2-16.4 0-22.6 6.2-6.2 16.4-6.2 22.6 0L216.6 311.4 365.3 162.6z" fill="#4f46e5" stroke="#4f46e5" stroke-width="20" stroke-linecap="round" stroke-linejoin="round"/>
  </g>
</svg>
